# xmcd
#
# Track frame offsets:
#	150
#	19042
#	39282
#
# Disc length: 808 seconds
#
# Revision: 0
# Processed by: cddbd v1.5PL3 Copyright (c) Steve Scherf et al.
# Submitted via: dBpowerAMP V4.0
#
DISCID=16032603
DTITLE=Burning Sky - Burning Sky
DYEAR=1900
DGENRE=
TTITLE0=It Weeps In My Heart
TTITLE1=Betraying Mississippi
TTITLE2=After the Flood
EXTD=
EXTT0=
EXTT1=
EXTT2=
PLAYORDER=
